<?xml version="1.0" standalone="no"?><!DOCTYPE svg PUBLIC "-//W3C//DTD SVG 1.1//EN" "http://www.w3.org/Graphics/SVG/1.1/DTD/svg11.dtd"><svg t="1603086348410" class="icon" viewBox="0 0 1024 1024" version="1.1" xmlns="http://www.w3.org/2000/svg" p-id="4046" xmlns:xlink="http://www.w3.org/1999/xlink" width="200" height="200"><defs><style type="text/css"></style></defs><path d="M519.2 1021.6c-19.2 0-33.6-16-33.6-33.6v-53.6c-209.6-16-376-182.4-393.6-393.6H33.6c-19.2 0-33.6-16-33.6-33.6s16-33.6 33.6-33.6h58.4c16-209.6 182.4-376 393.6-393.6V37.6c0-19.2 16-33.6 33.6-33.6 19.2 0 33.6 16 33.6 33.6V80c209.6 16 376 182.4 393.6 393.6h44.8c9.6 0 17.6 3.2 24 9.6 6.4 6.4 9.6 14.4 9.6 24 0 19.2-16 33.6-33.6 33.6h-44.8c-16 209.6-182.4 376-393.6 393.6v53.6c0 17.6-14.4 33.6-33.6 33.6z m0-372.8c19.2 0 33.6 16 33.6 33.6v184c171.2-16 309.6-152.8 325.6-325.6H684c-19.2 0-33.6-16-33.6-33.6s16-33.6 33.6-33.6h193.6c-16-171.2-152.8-309.6-325.6-325.6v206.4c0 19.2-16 33.6-33.6 33.6-19.2 0-33.6-16-33.6-33.6V148.8C314.4 164 176 300.8 160 473.6h180.8c19.2 0 33.6 16 33.6 33.6s-16 33.6-33.6 33.6H160c16 171.2 152.8 309.6 325.6 325.6v-184c0-19.2 14.4-33.6 33.6-33.6z" fill="#FF4C1B" p-id="4047"></path></svg>
