<?xml version="1.0" standalone="no"?><!DOCTYPE svg PUBLIC "-//W3C//DTD SVG 1.1//EN" "http://www.w3.org/Graphics/SVG/1.1/DTD/svg11.dtd"><svg t="1603155815369" class="icon" viewBox="0 0 1024 1024" version="1.1" xmlns="http://www.w3.org/2000/svg" p-id="5513" xmlns:xlink="http://www.w3.org/1999/xlink" width="200" height="200"><defs><style type="text/css"></style></defs><path d="M512 256C371.2 256 256 371.2 256 512s115.2 256 256 256 256-115.2 256-256-115.2-256-256-256z m0 428.8c-96 0-172.8-76.8-172.8-172.8S416 339.2 512 339.2s172.8 76.8 172.8 172.8-76.8 172.8-172.8 172.8zM117.376 178.752l58.816-58.816 122.24 122.24-58.88 58.752zM0 467.2h172.8v83.2H0zM119.296 849.344l122.176-122.24 58.88 58.88-122.24 122.24zM467.2 851.2h83.2V1024H467.2zM727.168 782.464l58.88-58.88 122.176 122.24-58.88 58.88zM851.2 467.2H1024v83.2h-172.8zM723.008 239.552l122.24-122.24 58.816 58.88-122.24 122.24zM467.2 0h83.2v172.8H467.2z" p-id="5514" fill="#FF4C1B"></path></svg>
