<?xml version="1.0" standalone="no"?><!DOCTYPE svg PUBLIC "-//W3C//DTD SVG 1.1//EN" "http://www.w3.org/Graphics/SVG/1.1/DTD/svg11.dtd"><svg t="1603155628681" class="icon" viewBox="0 0 1024 1024" version="1.1" xmlns="http://www.w3.org/2000/svg" p-id="5219" xmlns:xlink="http://www.w3.org/1999/xlink" width="200" height="200"><defs><style type="text/css"></style></defs><path d="M512 64.308655c-247.25329 0-447.691345 200.438055-447.691345 447.691345s200.438055 447.691345 447.691345 447.691345S959.691345 759.252267 959.691345 512 759.25329 64.308655 512 64.308655zM886.810455 353.683275c6.644327 15.709797 12.261255 31.727609 16.84362 48.009434L532.934798 772.411985l0-73.386404 351.280552-351.280552C885.087207 349.721033 885.968274 351.691921 886.810455 353.683275zM918.022317 487.268736 532.934798 872.355231l0-70.999031 376.496863-376.49584C913.895323 445.321368 916.765697 466.151789 918.022317 487.268736zM532.934798 670.081365l0-75.433016 313.813219-313.813219c10.440793 15.084557 19.85214 30.849612 28.17162 47.261397L532.934798 670.081365zM532.934798 390.670677l212.113979-212.113979c14.673188 10.280134 28.686343 21.550829 41.990347 33.783431L532.934798 466.443431 532.934798 390.670677zM532.934798 361.725438l0-65.8825 152.069441-152.069441c14.710027 6.91448 28.930913 14.673188 42.63196 23.25054L532.934798 361.725438zM532.934798 266.898723 532.934798 194.195887l77.090772-77.089749c18.635429 4.613064 36.945447 10.561543 54.864562 17.839297L532.934798 266.898723zM532.934798 165.250648 532.934798 105.766882c17.980513 0.903579 35.757388 2.977821 53.280484 6.204305L532.934798 165.250648zM532.934798 901.30047l385.80281-385.80281c-0.2415 29.045523-3.495614 57.614186-9.715269 85.489046l-308.035632 308.035632c-22.277376 4.971222-44.997843 8.052396-68.051909 9.210779L532.934798 901.30047zM834.527694 264.111237 532.934798 565.704133l0-70.316485 268.823562-268.823562C813.498752 238.479463 824.428685 251.007801 834.527694 264.111237zM224.378304 799.621696c-37.369096-37.369096-66.704215-80.873935-87.188758-129.305995-21.199835-50.120514-31.948643-103.386672-31.948643-158.316725s10.748808-108.195188 31.948643-158.316725c20.484543-48.432059 49.819662-91.935875 87.188758-129.305995 37.369096-37.369096 80.873935-66.703191 129.305995-87.188758 44.01547-18.61701 90.456175-29.17139 138.318252-31.467689l0 812.556287c-47.863101-2.296299-94.303806-12.850679-138.318252-31.467689C305.252239 866.325911 261.747399 836.990792 224.378304 799.621696zM799.621696 799.621696c-37.369096 37.369096-80.873935 66.703191-129.305995 87.188758-9.630335 4.073782-19.378349 7.757684-29.230742 11.056823l256.781294-256.781294c-3.299139 9.852392-6.983041 19.600407-11.056823 29.230742C866.325911 718.747761 836.990792 762.252601 799.621696 799.621696z" p-id="5220" fill="#ffffff"></path></svg>