<?xml version="1.0" standalone="no"?><!DOCTYPE svg PUBLIC "-//W3C//DTD SVG 1.1//EN" "http://www.w3.org/Graphics/SVG/1.1/DTD/svg11.dtd"><svg t="1603075815756" class="icon" viewBox="0 0 1024 1024" version="1.1" xmlns="http://www.w3.org/2000/svg" p-id="2561" xmlns:xlink="http://www.w3.org/1999/xlink" width="200" height="200"><defs><style type="text/css"></style></defs><path d="M73.9 187.3h52.8v659.5H73.9zM177 676.2h52.8v170.6H177z m103.2-86.3H333v256.9h-52.8z m103.2 86.3h52.8v170.6h-52.8zM486.5 488h52.8v358.8h-52.8z m103.2 188.2h52.8v170.6h-52.8z m103.1-86.3h52.8v256.9h-52.8zM796 676.2h52.8v170.6H796z m103.1-488.9h52.8v659.5h-52.8z m-84.3 87l-65.6-65.7v49.7H276.7v-49.7l-65.6 65.7 65.6 65.6v-49.6h472.5v49.6z" p-id="2562" fill="#ffffff"></path></svg>