<?xml version="1.0" standalone="no"?><!DOCTYPE svg PUBLIC "-//W3C//DTD SVG 1.1//EN" "http://www.w3.org/Graphics/SVG/1.1/DTD/svg11.dtd"><svg t="1603080605412" class="icon" viewBox="0 0 1024 1024" version="1.1" xmlns="http://www.w3.org/2000/svg" p-id="3772" xmlns:xlink="http://www.w3.org/1999/xlink" width="200" height="200"><defs><style type="text/css"></style></defs><path d="M576.237535 226.368634c60.149938 0 201.979154 0 244.937548 0 42.986023 0 64.459081 4.53734 64.459081 76.618005l0 26.986631c47.26549 0.575098 70.904886 7.360641 70.904886 87.12736 0 87.198991 0 395.684878 0 431.43715 0 35.752272-14.159488 49.182143-96.687086 49.182143-82.524528 0-567.719023 0-624.211664 0-22.608927 0-41.557488 0.208754-56.158021-4.424776l-63.057151 0c-25.77299 0-51.561329-9.005095-51.561329-76.583213 0-67.583235-0.298805-509.388523-0.298805-586.003458 0-76.638471 17.46886-107.212814 94.841042-107.212814 77.333296 0 264.185938 2.425236 315.747267 2.425236C526.725888 125.920898 576.237535 226.368634 576.237535 226.368634L576.237535 226.368634zM842.645071 329.915965l0-0.032746c0-47.599088-13.029758-56.257282-43.534516-56.257282-30.448476 0-604.913133 0-648.442532 0-43.502793 0-60.944024 8.65717-60.944024 60.57461 0 51.945069 0 354.897939 0 428.479795 0 66.067718 21.104667 79.789231 56.919361 81.898265-0.73678-6.385431-1.11745-13.528108-1.11745-21.541619 0-76.017324 1.027399-350.031095 1.027399-403.719878 0-62.588477 4.345981-89.402169 65.142649-89.402169L842.645071 329.914942z" p-id="3773" fill="#ffffff"></path></svg>