<?xml version="1.0" standalone="no"?><!DOCTYPE svg PUBLIC "-//W3C//DTD SVG 1.1//EN" "http://www.w3.org/Graphics/SVG/1.1/DTD/svg11.dtd"><svg t="1603155841690" class="icon" viewBox="0 0 1024 1024" version="1.1" xmlns="http://www.w3.org/2000/svg" p-id="5767" xmlns:xlink="http://www.w3.org/1999/xlink" width="200" height="200"><defs><style type="text/css"></style></defs><path d="M512 0c284.416 0 512 227.584 512 512s-227.584 512-512 512-512-227.584-512-512 227.584-512 512-512z m0 64C262.912 64 64 262.912 64 512s198.912 448 448 448 448-198.912 448-448-198.912-448-448-448z" p-id="5768" fill="#FF4C1B"></path><path d="M780.672 661.376a35.328 35.328 0 0 1-35.328-35.328V397.952a35.328 35.328 0 1 1 70.656 0v228.096a35.328 35.328 0 0 1-35.328 35.328z m-134.016 77.312a35.328 35.328 0 0 1-35.328-35.328V320.64a35.328 35.328 0 1 1 70.656 0v382.72a35.328 35.328 0 0 1-35.328 35.328zM512 816a35.328 35.328 0 0 1-35.328-35.328V243.328a35.328 35.328 0 1 1 70.656 0v537.344A35.328 35.328 0 0 1 512 816z m-134.016-77.312a35.328 35.328 0 0 1-35.328-35.328V320.64a35.328 35.328 0 1 1 70.656 0v382.72a35.328 35.328 0 0 1-35.328 35.328z m-134.656-77.312a35.328 35.328 0 0 1-35.328-35.328V397.952a35.328 35.328 0 1 1 70.656 0v228.096a35.328 35.328 0 0 1-35.328 35.328z" p-id="5769" fill="#FF4C1B"></path></svg>
