<?xml version="1.0" standalone="no"?><!DOCTYPE svg PUBLIC "-//W3C//DTD SVG 1.1//EN" "http://www.w3.org/Graphics/SVG/1.1/DTD/svg11.dtd"><svg t="1603077286671" class="icon" viewBox="0 0 1024 1024" version="1.1" xmlns="http://www.w3.org/2000/svg" p-id="2799" xmlns:xlink="http://www.w3.org/1999/xlink" width="200" height="200"><defs><style type="text/css"></style></defs><path d="M243.358025 692.148148c28.444444 0 56.888889 12.641975 79.012345 31.604938 18.962963 18.962963 31.604938 47.407407 31.604939 79.012346s-12.641975 60.049383-31.604939 79.012346c-22.123457 22.123457-50.567901 34.765432-79.012345 34.765432-31.604938 0-60.049383-12.641975-79.012346-34.765432-22.123457-18.962963-34.765432-47.407407-34.765432-79.012346s12.641975-60.049383 34.765432-79.012346c18.962963-18.962963 47.407407-31.604938 79.012346-31.604938z m44.246913 63.209877c-9.481481-9.481481-28.444444-18.962963-44.246913-18.962963-18.962963 0-34.765432 9.481481-47.407408 18.962963-12.641975 12.641975-18.962963 28.444444-18.962963 47.407407s6.320988 34.765432 18.962963 47.407408 28.444444 18.962963 47.407408 18.962962c15.802469 0 34.765432-6.320988 44.246913-18.962962 12.641975-12.641975 22.123457-28.444444 22.123457-47.407408s-9.481481-34.765432-22.123457-47.407407z" p-id="2800" fill="#ffffff"></path><path d="M44.246914 0h385.580246c6.320988 0 12.641975 3.160494 18.962963 6.320988 0 3.160494 0 3.160494 3.160494 6.320987s3.160494 9.481481 3.160494 15.802469v967.111112c0 9.481481-3.160494 15.802469-6.320988 18.962963-6.320988 6.320988-12.641975 9.481481-18.962963 9.481481H44.246914c-9.481481 0-15.802469-3.160494-22.123457-9.481481v-3.160494c-3.160494-3.160494-6.320988-9.481481-6.320988-15.802469V28.444444c0-9.481481 3.160494-15.802469 9.481482-18.962963L22.123457 6.320988c6.320988-3.160494 12.641975-6.320988 22.123457-6.320988z m366.617284 47.407407H63.209877v929.185186h347.654321V47.407407z" p-id="2801" fill="#ffffff"></path><path d="M982.91358 1024H436.148148c-12.641975 0-25.283951-9.481481-25.28395-22.123457V613.135802c0-12.641975 12.641975-25.283951 25.28395-25.28395h546.765432c12.641975 0 25.283951 12.641975 25.283951 25.28395v388.740741c0 12.641975-12.641975 22.123457-25.283951 22.123457z m-524.641975-47.407407h502.518518V635.259259H458.271605v341.333334z" p-id="2802" fill="#ffffff"></path><path d="M448.790123 338.17284c-9.481481 9.481481-22.123457 9.481481-31.604938 0s-9.481481-25.283951 0-34.765433l202.271605-192.790123c9.481481-9.481481 25.283951-9.481481 34.765432 0l262.320988 274.962963c9.481481 9.481481 9.481481 25.283951 0 31.604938l-195.950617 211.753087c-9.481481 9.481481-22.123457 9.481481-31.604939 0s-9.481481-22.123457 0-31.604939l180.148148-192.790123-233.876543-243.358025-186.469136 176.987655z" p-id="2803" fill="#ffffff"></path></svg>