<?xml version="1.0" standalone="no"?><!DOCTYPE svg PUBLIC "-//W3C//DTD SVG 1.1//EN" "http://www.w3.org/Graphics/SVG/1.1/DTD/svg11.dtd"><svg t="1603086583266" class="icon" viewBox="0 0 1024 1024" version="1.1" xmlns="http://www.w3.org/2000/svg" p-id="4486" xmlns:xlink="http://www.w3.org/1999/xlink" width="200" height="200"><defs><style type="text/css"></style></defs><path d="M64 480h96v64H64z m800 0h96v64h-96zM320 512a192 192 0 1 0 384 0 192 192 0 1 0-384 0z" p-id="4487" fill="#FF4C1B"></path><path d="M512 896a382.88 382.88 0 1 1 149.48-30.19A381.62 381.62 0 0 1 512 896z m0-717.55a332.42 332.42 0 1 0 129.82 26.2A331.44 331.44 0 0 0 512 178.45z" p-id="4488" fill="#FF4C1B"></path><path d="M480 64h64v96h-64z m0 800h64v96h-64z" p-id="4489" fill="#FF4C1B"></path></svg>
