<svg width="200" height="200" xmlns="http://www.w3.org/2000/svg">

 <g>
  <title>Layer 1</title>
  <g>
   <g>
    <path fill="#FFFFFF" d="m169.19998,92.29999c0,-42.5 -34.39999,-76.89999 -76.89999,-76.89999s-76.89999,34.39999 -76.89999,76.89999s34.39999,76.89999 76.89999,76.89999s76.89999,-34.39999 76.89999,-76.89999zm15.40002,0c0,51 -41.30002,92.30002 -92.30002,92.30002s-92.29999,-41.30002 -92.29999,-92.30002s41.29999,-92.29999 92.29999,-92.29999s92.30002,41.3 92.30002,92.29999z" class="st0"/>
    <path fill="#FFFFFF" d="m148.39999,159.29999c-3,-3 -3,-7.90002 0,-10.90002s7.89999,-3 10.89999,0l38.5,38.50003c3,3 3,7.89999 0,10.89999c-3,3 -7.89999,3 -10.89999,0l-38.5,-38.5zm-86.79999,-59.29999c-4.20001,0 -7.70001,-3.39999 -7.70001,-7.70001s3.39999,-7.69998 7.70001,-7.69998l61.5,0c4.19998,0 7.69998,3.39999 7.69998,7.69998s-3.39999,7.70001 -7.69998,7.70001l-61.5,0z" class="st0"/>
    <path fill="#FFFFFF" d="m100,123.10001c0,4.19998 -3.39999,7.69998 -7.70001,7.69998s-7.69998,-3.39999 -7.69998,-7.69998l0,-61.5c0,-4.20001 3.39999,-7.70001 7.69998,-7.70001s7.70001,3.39999 7.70001,7.70001l0,61.5z" class="st0"/>
   </g>
  </g>
 </g>
</svg>